<svg width="512" height="512" viewBox="0 0 512 512" xmlns="http://www.w3.org/2000/svg">
  <g stroke="none">
    <circle fill="#8EC447" cx="256" cy="256" r="256"/>
    <path d="M145.5 302c0-16.5 0-34.2.2-53.4.3-19 .3-38.4-.2-57.8 0-4.3-1-8.4-2.2-12.3-1.3-4-3.5-7-6.7-9-1.7-1-3.4-1.7-5.4-2.4-1.8-.6-4.3-1-7-1.5-3-.5-6.3-.7-10.4-1l-14.4-.6c-.6-7-1-14.6-1-22.7V135c0-1.8 0-4 .4-6 9.5-.6 17.5-1 23.8-1 5 0 9.5.2 13.5.7 4.6.7 9 1.3 14 2.5 2 .4 4 1 6.4 1.8 2.5 1 5 2.5 7.4 4.5 2.5 2 5 5 7.4 8.6 2.5 3.8 5 8.7 7 15 3.8-7.3 8.5-13.7 14.3-19.2 6-5.4 11.7-9 17.7-10.4 3.7-1.2 7.2-1.8 10.6-2.4 3.7-.5 7-.8 10.3-.8 7.5 0 14 2 19.6 6.4 5.5 4.4 9.3 12.8 11.7 25.5 4.7-8.5 10.8-16 18.4-22 7.7-6.2 17.3-9.3 28.7-9.3 3.2 0 6.2.5 9.5 1.6 3 1 6 3 9 5.6 2.8 2.3 5.5 6 8 10.6 2.3 4.4 4.4 10.3 6 17.5.8 8.4 1.3 17 1.5 26 .4 8.5.5 17.5.5 26.2v25.5c-.2 8.3-.2 16-.2 23.2 0 6.5 0 12.2.2 17.5l.5 15.5.4 16v20c0 7.3 1.6 11.5 4.4 12.8 2.8 1.3 6.8 0 11.7-3.2 5-3.2 10.8-8.6 17-16 6-7.4 12.5-16 19.2-26l8.6 9c3 3.2 5.5 6.8 8 10.8l-14 21c-4.8 7.3-10.5 14.2-16.7 20.3-6 6.2-13 11.3-20.5 15.3-7.7 4-16.3 6-26 6-1.5 0-3.6-.2-6-.5-2.5-.4-5-1-7.4-1.8-2.4-1-4.8-2.3-7.3-3.7-2.5-1.5-4.2-3.5-5.7-6.2-.6-1.2-1.2-2.8-1.6-5l-1-7.3-.4-8v-28.8l.2-18.5v-37c0-4.8 0-8.7-.2-12.2 0-3.4 0-7-.3-10.2 0-3.4 0-7-.2-10.5v-33c.3-7.8-.4-15.7-2-23.7-.6-2.7-1.6-4.6-3-5.4-1.2-1-3-1.2-5-1.2-1.6 0-3.6.6-5.4 1.4l-5.8 2.7c-2 1.4-4.2 2.8-6.7 5-2.4 2.5-5 5-7.4 8.2-2 3-4 6-5.5 9.5-1.7 3.2-2.7 6.4-3 9.3-.3 5-.5 12.3-.2 22.2.2 9.4 0 21.6-.4 36.4-.3 4.7 0 10.2 0 16.5.4 6.5.5 12.8.5 19 .3 13.3.3 26.4 0 39.4-.5 13-.5 25.5-.2 37.6-6.2.3-12.3.7-18.5.8-6 .3-12.3-.2-18-1.4l-.4-16.7V204c0-4.2 0-8.6-.4-13-.3-4.5-1-8.7-1.7-12.4-.7-2.8-1.6-4.7-3-5.6-1.5-1-3-1.2-5-1.2-1.6 0-3.6.5-5.6 1.2l-6 3c-1.7 1-3.8 2.7-6 5-2.5 2.4-4.7 5.2-6.8 8.3-2.3 3-4 6-5.5 9.8-1.5 3.5-2.5 6.7-2.5 9.6l-.5 60.8-.8 55c-.4 17.6-.5 35.6-.5 53.7-2.5.5-5.2.8-8.4 1h-9.6c-3 .2-6.2.2-9.2.2-3 0-5.6-.4-7.8-1 0-.5-.4-2.7-.4-6.6l-.3-13.8v-17.6c.2-6.2.2-12.3.2-17.6v-21l-.2.3z" fill="#fff"/>
  </g>
</svg>