<svg xmlns="http://www.w3.org/2000/svg" width="512" height="512" viewBox="0 0 512 512">
  <g stroke="none" transform="translate(48 48)">
    <circle cx="208" cy="208" r="208" fill="#8EC447"/>
    <path fill="#fff" d="M118.2 245.3c0-13.3 0-27.7.2-43.3.2-15.5.2-31.2-.2-47 0-3.5-.7-6.8-1.8-10-1-3.3-2.8-5.7-5.4-7.2-1.4-1-2.8-1.5-4.4-2-1.5-.6-3.5-1-5.8-1.3-2.3-.4-5-.6-8.3-.8l-11.7-.5c-.5-5.6-.8-11.8-.8-18.4v-5c0-1.6 0-3.3.3-5 7.7-.5 14.2-.8 19.3-.8 4 0 7.7.2 11 .6 3.6.5 7.3 1 11.2 2 1.6.3 3.4.8 5.3 1.5 2 .8 4 2 6 3.6s4 4 6 7 4 7 5.8 12c3-5.8 6.8-11 11.5-15.5 4.8-4.4 9.5-7.2 14.4-8.4 3-1 5.8-1.5 8.6-2 3-.4 5.7-.6 8.4-.6 6 0 11.3 1.7 15.8 5.2s7.6 10.4 9.5 20.7c3.8-7 8.8-13 15-18 6.2-5 14-7.5 23.3-7.5 2.6 0 5 .4 7.7 1.3 2.6.8 5 2.3 7.4 4.5 2.3 2 4.5 5 6.4 8.7 2 3.6 3.7 8.4 5 14.2.6 6.8 1 13.8 1.2 21 .3 7 .4 14.3.4 21.4v20.7c-.2 6.7-.2 13-.2 18.8 0 5.4 0 10 .2 14.3l.4 12.6.3 13c.2 4.6.2 10 .2 16.2 0 6 1.2 9.4 3.5 10.5 2.3 1 5.5 0 9.5-2.6s8.7-7 13.7-13 10.2-13 15.6-21.2l7 7.4c2.4 2.6 4.5 5.5 6.4 8.7-3.4 5.4-7.2 11-11.2 17-4 6-8.6 11.6-13.6 16.6-5 5-10.6 9.2-16.8 12.4-6.2 3.3-13.2 5-21 5-1.3 0-3-.3-5-.5-2-.3-4-.8-6-1.5-2-.8-4-1.8-6-3s-3.4-2.8-4.6-5c-.5-1-1-2.3-1.3-4l-.8-6-.4-6.5V262.2l.2-15v-30c0-4 0-7.2-.2-10 0-2.8 0-5.6-.2-8.3 0-2.8 0-5.6-.2-8.5v-26.9c.3-6.3-.3-12.7-1.7-19.2-.4-2.2-1.2-3.7-2.3-4.4-1-.8-2.4-1-4-1-1.4 0-3 .5-4.5 1.2l-4.8 2.2c-1.6 1-3.4 2.2-5.4 4-2 2-4 4-6 6.6-1.7 2.5-3.3 5-4.6 7.7-1.4 2.6-2.2 5.2-2.4 7.6-.3 4-.4 10-.2 18 .2 7.7 0 17.6-.3 29.6-.2 3.8 0 8.3 0 13.4.4 5.2.5 10.3.5 15.4.2 10.8.2 21.4 0 32-.4 10.6-.4 20.7-.2 30.5-5 .3-10 .6-15 .7-5 .2-10-.2-14.7-1.2l-.3-13.5V165.8c0-3.5 0-7-.3-10.7-.2-3.6-.7-7-1.4-10-.5-2.3-1.3-3.8-2.4-4.5-1.2-.8-2.5-1-4-1-1.4 0-3 .4-4.6 1l-4.8 2.4c-1.5.8-3.2 2.2-5 4-2 2-3.8 4.3-5.5 6.8-1.8 2.5-3.2 5-4.4 8-1.2 2.7-2 5.3-2 7.7l-.4 49.4-.7 44.6c-.3 14.4-.4 29-.4 43.7-2 .3-4.2.6-6.8.7h-7.8c-2.5.2-5 .2-7.5.2s-4.5-.3-6.3-.7c0-.5-.3-2.3-.3-5.5l-.3-11.2v-14.3c.2-5 .2-10 .2-14.3v-17z"/>
  </g>
</svg>